# xmcd
#
# Track frame offsets:
#	183
#	9063
#	18743
#	27865
#	39490
#	51688
#	63210
#	75043
#	88438
#	94125
#	103283
#	111388
#	120775
#	132088
#	141775
#	154588
#	167118
#	176300
#	184223
#	193740
#	203063
#	213793
#	221500
#	230645
#
# Disc length: 3210 seconds
#
# Revision: 0
# Processed by: cddbd v1.4PL0 Copyright (c) Steve Scherf et al.
# Submitted via: EasyCDDAExtractor 4.5.0.2
#
DISCID=440c8818
DTITLE=WILLIS BROTHER'S - 24 GREAT TRUCK DRIVIN SONGS 
DYEAR=1987
DGENRE=COUNTRY
TTITLE0=THE OLD SLEEPER CAB 
TTITLE1=ALCOHOL AND #2 DIESEL
TTITLE2=BLAZING SMOKESTACK
TTITLE3=GIVE ME FORTY ACRES
TTITLE4=IT'S THE MILES 
TTITLE5=BIG DADDY (IS ALABAMA BOUND )
TTITLE6=DIESEL SMOKE ON DANGER ROAD 
TTITLE7=RYE WHISKEY
TTITLE8=(CODY OF THE)PONY EXPRESS
TTITLE9=WHEN I COME DRIVING THROUGH
TTITLE10=WHEELS A TURNING 
TTITLE11=DRIVIN'S IN MY BLOOD 
TTITLE12=TRUCK DRIVIVNG SAM 
TTITLE13=MORTORCYCLE BILL 
TTITLE14=ODE TO BIG JOE 
TTITLE15=TRUCK DRIVER'S BLUES 
TTITLE16=HIGHWAY PATROL
TTITLE17=LONG HAUL WEEKEND 
TTITLE18=TRUCK DRIVER'S QUEEN 
TTITLE19=WHITE LINES AND ROADSIDE SIGNS 
TTITLE20=THE ONLY SHOULDER (A TRUCKER CAN CRY ON )
TTITLE21=DIESEL DRIVIVN DONUT DUNKIN DAN 
TTITLE22=SOFT SHOULDERS AND DANGEROUS  CURVES
TTITLE23=MOONLIGHT RIDE IN A DIESEL
EXTD=
EXTT0=
EXTT1=
EXTT2=
EXTT3=
EXTT4=
EXTT5=
EXTT6=
EXTT7=
EXTT8=
EXTT9=
EXTT10=
EXTT11=
EXTT12=
EXTT13=
EXTT14=
EXTT15=
EXTT16=
EXTT17=
EXTT18=
EXTT19=
EXTT20=
EXTT21=
EXTT22=
EXTT23=
PLAYORDER=
